<svg width="712" height="272" viewBox="0 0 712 272" fill="none" xmlns="http://www.w3.org/2000/svg">
<path d="M36.65 190V90H59.05V108.2C63.05 101.933 68.25 97.2667 74.65 94.2C81.05 91.1333 87.65 89.6 94.45 89.6V111C88.3167 111 82.5167 111.867 77.05 113.6C71.7167 115.2 67.3833 117.867 64.05 121.6C60.7167 125.333 59.05 130.267 59.05 136.4V190H36.65ZM155.306 192.4C145.306 192.4 136.373 190.2 128.506 185.8C120.773 181.267 114.706 175.067 110.306 167.2C105.906 159.333 103.706 150.267 103.706 140C103.706 129.733 105.84 120.667 110.106 112.8C114.506 104.933 120.573 98.8 128.306 94.4C136.04 89.8667 144.906 87.6 154.906 87.6C164.906 87.6 173.773 89.8667 181.506 94.4C189.24 98.8 195.24 104.933 199.506 112.8C203.906 120.667 206.106 129.733 206.106 140C206.106 150.267 203.973 159.333 199.706 167.2C195.44 175.067 189.44 181.267 181.706 185.8C173.973 190.2 165.173 192.4 155.306 192.4ZM155.306 171.8C160.773 171.8 165.64 170.467 169.906 167.8C174.173 165 177.506 161.267 179.906 156.6C182.306 151.8 183.506 146.267 183.506 140C183.506 133.733 182.24 128.267 179.706 123.6C177.306 118.8 173.973 115.067 169.706 112.4C165.44 109.6 160.506 108.2 154.906 108.2C149.306 108.2 144.373 109.533 140.106 112.2C135.84 114.867 132.506 118.6 130.106 123.4C127.706 128.2 126.506 133.733 126.506 140C126.506 146.267 127.706 151.8 130.106 156.6C132.64 161.267 136.04 165 140.306 167.8C144.706 170.467 149.706 171.8 155.306 171.8ZM257.717 192.4C245.717 192.4 236.384 189.733 229.717 184.4C223.184 179.067 219.917 171.533 219.917 161.8C219.917 151.4 223.384 143.467 230.317 138C237.384 132.533 247.184 129.8 259.717 129.8H285.117C284.317 122.467 282.251 116.867 278.917 113C275.584 109.133 270.651 107.2 264.117 107.2C259.317 107.2 255.117 108.2 251.517 110.2C247.917 112.2 244.851 115.333 242.317 119.6L222.717 112.4C224.851 108 227.651 103.933 231.117 100.2C234.717 96.3333 239.184 93.2667 244.517 91C249.984 88.7333 256.517 87.6 264.117 87.6C273.851 87.6 281.984 89.5333 288.517 93.4C295.051 97.1333 299.851 102.533 302.917 109.6C306.117 116.667 307.717 125.2 307.717 135.2L307.117 190H286.517L285.917 177.8C283.251 182.467 279.517 186.067 274.717 188.6C270.051 191.133 264.384 192.4 257.717 192.4ZM260.517 173.6C265.451 173.6 269.784 172.533 273.517 170.4C277.384 168.133 280.317 165.133 282.317 161.4C284.451 157.667 285.517 153.533 285.517 149V147H266.917C257.984 147 251.717 148.267 248.117 150.8C244.517 153.2 242.717 156.667 242.717 161.2C242.717 165.067 244.251 168.133 247.317 170.4C250.517 172.533 254.917 173.6 260.517 173.6ZM366.8 192.4C360.133 192.4 354 191.4 348.4 189.4C342.8 187.4 338 184.6 334 181C330 177.267 326.933 172.933 324.8 168L344.2 159.4C346.2 163.133 349.133 166.267 353 168.8C357 171.333 361.4 172.6 366.2 172.6C371.4 172.6 375.533 171.733 378.6 170C381.8 168.133 383.4 165.6 383.4 162.4C383.4 159.333 382.2 157 379.8 155.4C377.4 153.667 374 152.267 369.6 151.2L360.2 148.6C350.733 146.2 343.333 142.4 338 137.2C332.667 131.867 330 125.8 330 119C330 109 333.2 101.267 339.6 95.8C346.133 90.3333 355.467 87.6 367.6 87.6C373.733 87.6 379.333 88.5333 384.4 90.4C389.6 92.1333 394.067 94.6667 397.8 98C401.533 101.2 404.133 105 405.6 109.4L387 117.8C385.667 114.467 383.133 111.933 379.4 110.2C375.667 108.333 371.533 107.4 367 107.4C362.467 107.4 358.933 108.4 356.4 110.4C353.867 112.267 352.6 114.933 352.6 118.4C352.6 120.4 353.733 122.267 356 124C358.267 125.6 361.533 126.933 365.8 128L377.6 130.8C384.133 132.4 389.467 134.933 393.6 138.4C397.733 141.733 400.8 145.533 402.8 149.8C404.8 153.933 405.8 158.133 405.8 162.4C405.8 168.4 404.067 173.667 400.6 178.2C397.267 182.733 392.667 186.267 386.8 188.8C380.933 191.2 374.267 192.4 366.8 192.4ZM516.406 192.4C506.673 192.4 498.006 190.2 490.406 185.8C482.94 181.267 477.006 175.067 472.606 167.2C468.34 159.333 466.206 150.267 466.206 140C466.206 129.733 468.406 120.667 472.806 112.8C477.206 104.933 483.206 98.8 490.806 94.4C498.54 89.8667 507.34 87.6 517.206 87.6C526.14 87.6 534.206 89.9333 541.406 94.6C548.606 99.1333 554.273 105.733 558.406 114.4C562.673 123.067 564.806 133.4 564.806 145.4H489.406C490.073 153.8 493.14 160.4 498.606 165.2C504.206 170 510.806 172.4 518.406 172.4C524.54 172.4 529.606 171.067 533.606 168.4C537.606 165.6 540.74 162 543.006 157.6L562.806 166C560.006 171.333 556.406 176 552.006 180C547.74 184 542.606 187.067 536.606 189.2C530.74 191.333 524.006 192.4 516.406 192.4ZM490.806 128.2H540.606C540.206 123.4 538.806 119.467 536.406 116.4C534.006 113.2 531.073 110.8 527.606 109.2C524.14 107.6 520.473 106.8 516.606 106.8C512.873 106.8 509.073 107.6 505.206 109.2C501.473 110.667 498.273 113 495.606 116.2C492.94 119.4 491.34 123.4 490.806 128.2ZM653.163 230V175.2C649.829 180.533 645.429 184.733 639.963 187.8C634.629 190.867 628.496 192.4 621.563 192.4C612.496 192.4 604.563 190.267 597.763 186C591.096 181.6 585.829 175.467 581.963 167.6C578.229 159.733 576.363 150.533 576.363 140C576.363 129.333 578.229 120.133 581.963 112.4C585.829 104.533 591.096 98.4667 597.763 94.2C604.563 89.8 612.496 87.6 621.563 87.6C628.629 87.6 634.829 89.2 640.163 92.4C645.629 95.4667 650.096 99.8 653.563 105.4L654.363 90H675.563V230H653.163ZM627.163 172C632.229 172 636.696 170.667 640.563 168C644.563 165.2 647.629 161.4 649.763 156.6C652.029 151.8 653.163 146.267 653.163 140C653.163 133.733 652.029 128.2 649.763 123.4C647.629 118.6 644.563 114.867 640.563 112.2C636.696 109.533 632.163 108.2 626.963 108.2C621.629 108.2 616.896 109.533 612.763 112.2C608.629 114.867 605.363 118.6 602.963 123.4C600.696 128.2 599.496 133.733 599.363 140C599.496 146.267 600.696 151.8 602.963 156.6C605.363 161.4 608.629 165.2 612.763 168C617.029 170.667 621.829 172 627.163 172Z" fill="white"/>
<path d="M435 240V122C435 72.2944 475.294 32 525 32H613" stroke="#F2FF00" stroke-width="25"/>
<path d="M435.5 216.5C448.126 216.5 458.5 226.945 458.5 240C458.5 253.055 448.126 263.5 435.5 263.5C422.874 263.5 412.5 253.055 412.5 240C412.5 226.945 422.874 216.5 435.5 216.5Z" fill="black" stroke="#F2FF00" stroke-width="9"/>
<path d="M632.5 8.5C645.126 8.5 655.5 18.9445 655.5 32C655.5 45.0555 645.126 55.5 632.5 55.5C619.874 55.5 609.5 45.0555 609.5 32C609.5 18.9445 619.874 8.5 632.5 8.5Z" fill="black" stroke="#F2FF00" stroke-width="9"/>
</svg>
